# xmcd
#
# Track frame offsets: 
#        150
#        15082
#        29360
#        44292
#        57955
#        68985
#        83407
#        97005
#        111832
#        127007
#        140690
#        156465
#        169292
#        183797
#
# Disc length: 2625 seconds
#
# Revision: 4
# Processed by: cddbd v1.5.2PL0 Copyright (c) Steve Scherf et al.
# Submitted via: ExactAudioCopy v0.95b4
#
DISCID=b90a3f0e
DTITLE=Sarah Vaughan - The Divine Sarah Vaughan-The Columbia Years 194
DTITLE=9-1953 cd1
DYEAR=1953
DGENRE=Jazz
TTITLE0=Black Coffee
TTITLE1=While You Are Gone
TTITLE2=You Taught Me To Love Again
TTITLE3=Just Friends
TTITLE4=I Cried For You
TTITLE5=You're Mine, You
TTITLE6=I'm Crazy To Love You
TTITLE7=Summertime
TTITLE8=The Nearness of You
TTITLE9=Ain't Misbehavin'
TTITLE10=Goodnight My Love
TTITLE11=Can't Get Out Of This Mood
TTITLE12=It Might As Well Be Spring
TTITLE13=Mean To Me
EXTD=
EXTT0=
EXTT1=
EXTT2=
EXTT3=
EXTT4=
EXTT5=
EXTT6=
EXTT7=
EXTT8=
EXTT9=
EXTT10=
EXTT11=
EXTT12=
EXTT13=
PLAYORDER=
